<?xml version="1.0" encoding="utf-8"?>
<!-- Generator: Adobe Illustrator 22.0.1, SVG Export Plug-In . SVG Version: 6.00 Build 0)  -->
<svg version="1.1" id="Capa_1" xmlns="http://www.w3.org/2000/svg" xmlns:xlink="http://www.w3.org/1999/xlink" x="0px" y="0px"
	 viewBox="0 0 512 512" style="enable-background:new 0 0 512 512;" xml:space="preserve">
<style type="text/css">
	.st0{fill:#FFFFFF;}
</style>
<path id="_x3C_Group_x3E_" class="st0" d="M467,151H361v-30h15c8.3,0,15-6.7,15-15s-6.7-15-15-15c-12,0-291.6,0-300,0
	c-6.1,0-11.6,3.7-13.9,9.3l-61,150c-1.2,3-1.4,6.3-0.6,9.4l31,120c1.7,6.6,7.7,11.2,14.5,11.2h77.6c6.2,17.5,22.9,30,42.4,30
	c11.5,0,22-4.4,30-11.5c8,7.1,18.5,11.5,30,11.5c19.6,0,36.2-12.5,42.4-30h111.2c6.2,17.5,22.9,30,42.4,30s36.2-12.5,42.4-30H497
	c8.3,0,15-6.7,15-15V196C512,171.2,491.8,151,467,151L467,151z M482,196v45h-60v-60h45C475.3,181,482,187.7,482,196z M331,271h-54.2
	l50-150h4.2V271z M201.8,271l50-150h43.4l-50,150H201.8z M126.8,271l50-150h43.4l-50,150H126.8z M30.8,257.1L86.1,121h59.1
	c-2.9,8.6-76.2,228.7-80,240h-7.6L30.8,257.1z M116.8,301H331v60h-62.6c-6.2-17.5-22.9-30-42.4-30c-11.5,0-22,4.4-30,11.5
	c-8-7.1-18.5-11.5-30-11.5c-19.6,0-36.2,12.5-42.4,30H96.8L116.8,301z M166,391c-8.3,0-15-6.7-15-15s6.7-15,15-15s15,6.7,15,15
	S174.3,391,166,391z M226,391c-8.3,0-15-6.7-15-15s6.7-15,15-15c8.3,0,15,6.7,15,15c0,0,0,0,0,0s0,0,0,0
	C241,384.3,234.3,391,226,391z M422,391c-8.3,0-15-6.7-15-15s6.7-15,15-15s15,6.7,15,15S430.3,391,422,391z M464.4,361
	c-6.2-17.5-22.9-30-42.4-30s-36.2,12.5-42.4,30H361V181h31v75c0,8.3,6.7,15,15,15h75v30h-15c-8.3,0-15,6.7-15,15s6.7,15,15,15h15v30
	H464.4z"/>
</svg>
