<?xml version="1.0" encoding="utf-8"?>
<!-- Generator: Adobe Illustrator 22.0.1, SVG Export Plug-In . SVG Version: 6.00 Build 0)  -->
<svg version="1.1" id="Layer_1" xmlns="http://www.w3.org/2000/svg" xmlns:xlink="http://www.w3.org/1999/xlink" x="0px" y="0px"
	 viewBox="0 0 512 512" style="enable-background:new 0 0 512 512;" xml:space="preserve">
<style type="text/css">
	.st0{fill:#FFFFFF;}
</style>
<path class="st0" d="M199.9,359.9h68v40h-68V359.9z M125,354.9c-13.8,0-25,11.2-25,25c0,13.8,11.2,25,25,25s25-11.2,25-25
	C150,366.1,138.8,354.9,125,354.9z M401.9,232.9H199.9v40h201.9V232.9z M125,227.9c-13.8,0-25,11.2-25,25s11.2,25,25,25
	s25-11.2,25-25S138.8,227.9,125,227.9z M401.9,113H199.9v40h201.9V113z M125,108c-13.8,0-25,11.2-25,25c0,13.8,11.2,25,25,25
	s25-11.2,25-25C150,119.2,138.8,108,125,108z M40,451.9V60c0-11,9-20,20-20h391.9c11,0,20,9,20,20v225.9h40V60c0-33.1-26.9-60-60-60
	H60C26.9,0,0,26.9,0,60v391.9c0,33.1,26.9,60,60,60h230.9v-40H60C49,471.9,40,462.9,40,451.9z M483.7,512l-39.8-39.8
	c-13.5,8.1-29.2,12.7-46,12.7c-49.6,0-90-40.4-90-90c0-49.6,40.4-90,90-90c49.6,0,90,40.4,90,90c0,18.4-5.5,35.4-15,49.7l39.1,39.1
	L483.7,512z M397.9,444.9c27.6,0,50-22.4,50-50s-22.4-50-50-50s-50,22.4-50,50S370.3,444.9,397.9,444.9z"/>
</svg>
