<?xml version="1.0" encoding="utf-8"?>
<!-- Generator: Adobe Illustrator 22.0.1, SVG Export Plug-In . SVG Version: 6.00 Build 0)  -->
<svg version="1.1" id="Capa_1" xmlns="http://www.w3.org/2000/svg" xmlns:xlink="http://www.w3.org/1999/xlink" x="0px" y="0px"
	 viewBox="0 0 512 512" style="enable-background:new 0 0 512 512;" xml:space="preserve">
<style type="text/css">
	.st0{fill:#FFFFFF;}
</style>
<g>
	<g>
		<path class="st0" d="M496,256h-16v-80c0-8.8-7.2-16-16-16h-16v-48c0-8.8-7.2-16-16-16h-54.1l-27.6-55.2c-4-7.9-13.6-11.1-21.5-7.2
			L292,52.1l-5.7-11.3c-4-7.9-13.6-11.1-21.5-7.1L140.2,96H48c-26.5,0-48,21.5-48,48v288c0,26.5,21.5,48,48,48h416
			c8.8,0,16-7.2,16-16v-80h16c8.8,0,16-7.2,16-16v-96C512,263.2,504.8,256,496,256z M416,128v32h-6.1l-16-32H416z M328.8,69.5
			l45.3,90.5h-28.2l-39.6-79.3L328.8,69.5z M264.8,69.5l45.3,90.5H83.8L264.8,69.5z M48,128h28.2l-42.9,21.5
			c-0.6-1.8-1.3-3.6-1.3-5.5C32,135.2,39.2,128,48,128z M448,448H48c-8.8,0-16-7.2-16-16V188.9c5.2,1.9,10.6,3.1,16,3.1h400v64h-64
			c-35.3,0-64,28.7-64,64s28.7,64,64,64h64V448z M480,352h-96c-17.6,0-32-14.4-32-32s14.4-32,32-32h96V352z"/>
	</g>
</g>
</svg>
