<?xml version="1.0" encoding="utf-8"?>
<!-- Generator: Adobe Illustrator 22.0.1, SVG Export Plug-In . SVG Version: 6.00 Build 0)  -->
<svg version="1.1" id="Layer_1" xmlns="http://www.w3.org/2000/svg" xmlns:xlink="http://www.w3.org/1999/xlink" x="0px" y="0px"
	 viewBox="0 0 497 330.9" style="enable-background:new 0 0 497 330.9;" xml:space="preserve">
<style type="text/css">
	.st0{fill:#FFFFFF;}
	.st1{fill-rule:evenodd;clip-rule:evenodd;fill:#FFFFFF;}
</style>
<path class="st0" d="M63.2,139.8c-6,3.1-11.9,5.9-17.5,8.5c-6.8,2.3-12.6,4.2-17.3,5.8c-1.5,0.5-2.8,0.8-3.9,1
	c-1.3,0.3-2.4,0.3-3.2,0c-0.8-0.2-1.4-0.7-1.7-1.7c-0.5-1-0.6-2.4-0.2-4.4c1.5-6.2,4.7-11.6,9.7-16.3c5-4.7,10.6-8,16.6-10
	c6.2-1.9,12.3-2.3,18.5-1c6.2,1.3,11.2,4.8,15.1,10.5C74.5,134.2,69.2,136.7,63.2,139.8L63.2,139.8z M85.6,152.7
	c-1.1,5-3.2,9.9-6.3,14.6c-2.3,3.1-5,6-8,8.8c-2.9,2.6-5,4.2-6.3,4.9c-1.1,0.5-1.9,0.6-2.4,0.5l-0.5-0.5c1-2.6,2.2-5.3,3.7-8
	c1.5-2.3,3.2-4.6,5.4-7.1c2.1-2.4,4.8-4.5,8-6.3c0.5-0.2,0.9-0.4,1.2-0.7l0.5-1.5c0.2-0.3,0-0.8-0.5-1.5c-0.5-0.8-1.1-1.4-1.7-1.7
	c-0.5-0.2-1.5-0.2-3.2,0c-1.9,0-4.6,0.7-8,2.2c-3.2,1.5-6.3,3.4-9,5.8c-2.9,2.6-5,5.8-6.1,9.5c-1,3.7-0.3,8,1.9,12.7
	c1.1,2.3,2.6,3.7,4.4,4.1c1.8,0.6,3.6,1.1,5.4,1.2c2.1,0,4.4-0.4,6.8-1.2c1.6-0.3,3.3-1,5.1-1.9c-1,1.8-2,3.6-3.2,5.4
	c-3.4,5.4-7.3,10-11.7,13.9c-4.4,3.9-9.2,6.8-14.4,8.8c-5,1.9-10.2,2.4-15.3,1.5c-3.1-0.6-6.3-1.9-9.5-3.7c-3.2-1.8-5.3-4.1-6.1-7.1
	c-1.5-3.6-3.1-5.4-4.9-5.6c-1.6-0.2-3,0.6-4.1,2.2c-1,1.8-1.5,4-1.7,6.6c-0.3,2.8,0.2,5.1,1.7,7.1c3.7,5.8,8.9,10,15.6,12.4
	c6.7,2.6,13.7,3.6,21.2,2.9c7.6-0.5,15.1-2.6,22.4-6.3c7.1-3.6,13.2-8.7,18-15.3c9.3-12.7,14.9-24.8,16.8-36.5
	c1.8-11.7,0.8-22.2-2.9-31.4c3.4-0.5,6.9-0.6,10.5-0.5c3.7,0.2,7.1,1.3,10.2,3.4l0.5,0.7c0.3,0.5,0.6,1.3,0.7,2.4l0.2,0.2l1,0.7h0.5
	c0.2,0,0.7-0.4,1.7-1.2c1.6-1.3,2.9-3.1,3.9-5.4c1.1-2.1,1.4-5,0.7-8.5c-1.6-5.5-5.7-8.4-12.2-8.5c-6.5-0.2-14.9,1.2-25.1,4.1
	c-5.4-6.3-11.9-10.8-19.5-13.4c-7.5-2.6-15.1-3.6-22.9-2.9c-8,0.8-15.6,3-22.9,6.6s-13.3,8.3-18,14.1c-0.3,0.3-0.5,0.6-0.5,0.7
	c-2.3,2.9-4.1,6.3-5.4,10c-1.3,3.7-1.6,7.1-1,10.2c0.6,3.2,2.4,6,5.4,8.3c2.9,2.3,7.4,3.4,13.4,3.4h2.2c1,0,2-0.2,3.2-0.5
	c5.8-1.8,11.6-3.9,17.3-6.3c6.2-2.8,12.8-5.7,20-8.8c7.1-3.1,14.6-5.4,22.4-7.1C84.9,146.1,85.4,149.3,85.6,152.7L85.6,152.7z
	 M106.3,177.3c1.3-4.5,3-8.9,5.1-13.2c2.1-4.5,3.3-7,3.7-7.3c0.6-1.3,1.6-1.8,2.9-1.5c1.5,0.3,2.4,0.6,2.9,1l1,0.7
	c0.5,0.2,1.1,0.6,1.7,1.2c0.6,0.5,1.4,1.5,2.2,2.9c1,1.5,1,3.2,0,5.1c-0.8,1.3-1.6,2.9-2.4,4.9c-0.8,1.9-1.5,3.7-1.9,5.1
	c-1,1.9-2,4.3-3.2,7.1c0.8-1,2.3-2.8,4.5-5.6c2.2-2.8,4.8-5.6,7.7-8.5c2.9-2.9,6.1-5.6,9.5-8c3.4-2.4,6.8-3.8,10.2-4.1
	c1.1-0.2,2.3-0.2,3.4,0c1,0.2,2,0.4,3.2,0.6c1.1,0.2,2.2,0.8,3.2,1.6c1.3,1,2.1,2.3,2.3,4c0.2,1.7,0.2,3.4-0.2,5.1
	c-0.4,1.7-1,3.3-1.8,4.9c-0.8,1.5-1.5,2.7-2.2,3.5c-1.1,1.3-2.5,2.3-4.1,2.9c-1.6,0.6-3.3,1.1-5,1.2c-1.7,0.2-3.2,0.2-4.5,0
	c-1.3-0.2-2.2-0.2-2.7-0.2c-0.8,0-1.3-0.2-1.5-0.7c-0.2-0.5-0.2-0.9,0-1.2c1.1-2.6,2.6-5.6,4.4-9c0.2-0.5,0.2-1,0.2-1.5
	c0-0.8-0.8-1-2.4-0.5l-1.5,1c-0.2,0-0.2,0-0.2,0.1c0,0.1-0.1,0.1-0.2,0.1c-0.5,0.3-1,0.7-1.5,1.1c-0.5,0.4-1.1,0.9-1.7,1.6
	c-0.6,0.5-1.2,1-1.6,1.5c-0.4,0.5-0.9,1-1.3,1.5c-1.3,1.5-2.2,2.8-2.6,4.1c-0.4,1.3-0.7,2.1-0.9,2.4v0.5c-0.5,2.4-0.4,4.5,0.2,6.3
	c0.6,1.8,1.7,3.3,3,4.5c1.4,1.2,2.9,2.2,4.5,3c1.6,0.8,3.1,1.3,4.4,1.5c2.6,0.5,5.3,0.5,8,0c1.1,0,2.2,0.3,3.3,1
	c1.1,0.6,1,2.1-0.1,4.4c-1.5,2.8-3.6,5.3-6.3,7.7c-2.8,2.4-6,3.7-9.7,4h-0.7c-1.1,0.2-2.2,0.2-3,0c-0.9-0.2-1.7-0.4-2.6-0.7
	l-2.2-0.7c-3.9-1.8-6.2-4.9-6.8-9.4c-0.6-4.5-0.3-9.3,1-14.5c-1.6,2.9-3,6.2-4.3,9.7c-1.2,3.6-2.2,7.5-3,11.7
	c-0.3,1.8-0.7,3.1-1.1,4c-0.4,0.9-1.1,1.2-2.1,0.9c-0.5,0-1.2-0.1-2.2-0.4c-1-0.2-2-0.7-3.2-1.3c-1.1-0.6-2.3-1.6-3.4-2.8
	c-1.1-1.2-2.1-2.8-2.9-4.8c-0.5-1.6-0.7-3.5-0.7-5.6c0-2.1,0.2-4.3,0.5-6.5c0.3-2.2,0.8-4.3,1.5-6.3c0.6-2,1.2-3.8,1.7-5.2
	C104.8,181.5,105.3,179.9,106.3,177.3L106.3,177.3z M197.2,152.9c0.8,0.3,1.5,0.7,2.1,1.2c0.6,0.5,1.3,1.1,2.1,1.9
	c1,1.3,1.7,2.9,2.2,4.8c0.5,1.9,0.8,3.8,0.9,5.7c0.1,1.9,0,3.8-0.2,5.6c-0.2,1.8-0.5,3.2-0.9,4.4c1.1,0.2,2.4,0.2,3.7,0.2
	c1.1,0,2.5-0.1,4-0.4c1.5-0.2,3.2-0.8,5-1.6c1.1-0.3,1.9-0.4,2.4-0.2c0.3,0.3,0.5,1.1,0.5,2.3c0,1.2-0.4,2.2-1.2,3
	c-1.8,1.5-3.8,2.6-6.1,3.4c-2.4,1-5.1,1.5-8,1.5c-1.1,0-1.9-0.1-2.4-0.2l-0.5,1c-0.2,0.3-0.3,0.7-0.5,1.1c-0.2,0.4-0.3,0.9-0.5,1.3
	c-0.8,1.9-2.1,4.4-3.9,7.4c-1.8,3-4,5.9-6.7,8.6s-5.8,5-9.4,6.8c-3.6,1.8-7.6,2.4-12.2,1.9c-4.2-0.6-7.1-2.6-8.6-6
	c-1.5-3.3-2.1-7.2-1.7-11.7c0.4-4.5,1.5-9.1,3.4-14c1.9-4.9,4.2-9.2,6.9-12.9c1-1.3,2-2.6,3.2-3.9c1.1-1.3,2.4-2.6,3.7-3.9
	c1-0.8,2.2-1.7,3.8-2.6c1.5-0.9,2.9-0.8,4,0.4c0.6,0.3,1,0.7,1.1,1.1c0.1,0.4,0.1,0.8,0.1,1.1c1.9-5,5-7.7,9-8h1.7
	C195.3,152.4,196.4,152.6,197.2,152.9L197.2,152.9z M188.6,184.1c0.5-0.5,0.7-0.8,0.7-1c-1-0.5-1.9-1.1-2.7-1.9
	c-0.8-0.6-1.6-1.5-2.3-2.6c-0.7-1.1-1.3-2.4-1.8-4c-0.2-0.8-0.3-1.7-0.5-2.7c-0.2-1-0.2-2-0.2-3.2c-0.2-0.5-0.1-1.2,0.2-2.2
	c0-0.8,0.1-1.5,0.2-2.2c0.2-0.6,0.3-1.4,0.5-2.2c-0.3,0.8-1.1,1.9-2.2,3.2c-0.5,1-1.1,1.9-1.7,2.7c-0.5,0.8-1.1,1.7-1.7,2.7
	c-0.6,1-1.2,1.9-1.7,2.9c-0.6,1.3-1.3,2.8-1.9,4.6c-0.6,1.8-1.3,3.8-1.9,6.1c-0.8,2.6-1.3,5.2-1.5,7.9c-0.2,2.7,0.9,4.3,3.2,4.8
	c1.5,0.3,3.1-0.2,4.9-1.5c1.8-1.3,3.3-2.7,4.6-4.1C184.4,190,186.4,187.5,188.6,184.1L188.6,184.1z M194,172.9
	c1.1-2.9,1.5-5.8,1.2-8.5c-0.3-2.8-1.1-4.1-2.4-3.9c-1.3,0.2-2.2,1.1-2.6,2.9c-0.4,1.8-0.4,3.5-0.1,5.1c0.2,1.3,0.9,2.4,2.2,3.4
	C192.9,172.4,193.5,172.7,194,172.9L194,172.9z"/>
<path class="st0" d="M18.4,238.7c7.1,0,12.6,1.3,16.4,3.8c3.8,2.5,5.7,6.6,5.7,12.3c0,5.8-1.9,9.9-5.8,12.5
	c-3.9,2.6-9.4,3.8-16.6,3.8h-3.4v16H4V240c2.3-0.5,4.8-0.8,7.5-1C14.1,238.8,16.4,238.7,18.4,238.7L18.4,238.7z M19.1,247.9
	c-0.8,0-1.6,0-2.3,0.1c-0.8,0-1.4,0.1-2,0.1v13.8h3.4c3.7,0,6.5-0.5,8.4-1.5c1.9-1,2.8-2.9,2.8-5.7c0-1.3-0.2-2.4-0.7-3.3
	c-0.5-0.9-1.2-1.6-2.1-2.1c-0.9-0.5-2-0.9-3.3-1.1C22.1,248,20.6,247.9,19.1,247.9L19.1,247.9z M48.5,287.1v-47.8h32.3v9H59.2v9.4
	h19.1v8.8H59.2v11.5h23.1v9H48.5L48.5,287.1z M112.1,288.1c-7.8,0-13.7-2.2-17.8-6.5c-4.1-4.3-6.1-10.5-6.1-18.4
	c0-4,0.6-7.5,1.9-10.6c1.2-3.1,2.9-5.7,5.1-7.9c2.2-2.1,4.7-3.8,7.7-4.9c3-1.1,6.2-1.7,9.7-1.7c2,0,3.9,0.1,5.5,0.4s3.1,0.6,4.3,1
	c1.2,0.4,2.3,0.8,3.1,1.2c0.8,0.4,1.4,0.7,1.8,1l-3.1,8.7c-1.5-0.8-3.2-1.4-5.1-2c-2-0.6-4.2-0.8-6.7-0.8c-1.7,0-3.3,0.3-4.9,0.8
	c-1.6,0.6-3,1.4-4.2,2.7c-1.2,1.2-2.2,2.8-2.9,4.7c-0.7,1.9-1.1,4.3-1.1,7c0,2.2,0.2,4.3,0.7,6.2c0.5,1.9,1.3,3.6,2.3,4.9
	c1.1,1.4,2.5,2.5,4.2,3.3c1.7,0.8,3.9,1.2,6.3,1.2c1.6,0,3-0.1,4.2-0.3c1.2-0.2,2.3-0.4,3.3-0.7c1-0.3,1.8-0.5,2.6-0.9
	c0.7-0.3,1.4-0.6,2-0.9l3,8.6c-1.5,0.9-3.7,1.7-6.4,2.5C118.9,287.7,115.7,288.1,112.1,288.1L112.1,288.1z M160.5,273.1
	c-1.3,3-2.7,5.5-4.2,7.5c-1.5,2-3,3.5-4.6,4.6c-1.6,1.1-3.2,1.9-4.8,2.3c-1.6,0.4-3.2,0.6-4.9,0.6c-1.6,0-3.2-0.1-4.9-0.4
	c-1.7-0.3-3.3-0.7-4.7-1.3l1.9-8.6c2.3,0.8,4.5,1.2,6.7,1.2c1.4,0,2.8-0.3,4.1-1c1.3-0.6,2.6-2,3.8-4.1c-1.9-2.9-3.7-6-5.5-9.1
	c-1.7-3.1-3.4-6.2-4.9-9.2c-1.6-3-3-5.9-4.3-8.7c-1.3-2.8-2.5-5.3-3.5-7.6h11.9c0.7,1.8,1.6,3.7,2.5,5.8c0.9,2,1.9,4.2,2.9,6.3
	c1,2.2,2,4.4,3.1,6.6c1,2.2,2,4.3,3,6.4c1.5-4,2.9-8.2,4.2-12.4c1.3-4.2,2.6-8.4,3.9-12.6h11.5c-1.2,3.5-2.4,6.9-3.5,9.9
	c-1.2,3.1-2.3,6-3.4,8.8c-1.1,2.8-2.2,5.4-3.3,7.9C162.5,268.3,161.5,270.8,160.5,273.1L160.5,273.1z M194.4,238.7
	c7.1,0,12.6,1.3,16.4,3.8c3.8,2.5,5.7,6.6,5.7,12.3c0,5.8-1.9,9.9-5.8,12.5c-3.9,2.6-9.4,3.8-16.6,3.8h-3.4v16H180V240
	c2.3-0.5,4.8-0.8,7.5-1C190.1,238.8,192.4,238.7,194.4,238.7L194.4,238.7z M195.1,247.9c-0.8,0-1.6,0-2.3,0.1c-0.8,0-1.4,0.1-2,0.1
	v13.8h3.4c3.7,0,6.5-0.5,8.4-1.5c1.9-1,2.8-2.9,2.8-5.7c0-1.3-0.2-2.4-0.7-3.3c-0.5-0.9-1.2-1.6-2.1-2.1c-0.9-0.5-2-0.9-3.3-1.1
	C198.1,248,196.6,247.9,195.1,247.9L195.1,247.9z M246.3,288.1c-7.8,0-13.7-2.2-17.8-6.5c-4.1-4.3-6.1-10.5-6.1-18.4
	c0-4,0.6-7.5,1.9-10.6c1.2-3.1,2.9-5.7,5.1-7.9c2.2-2.1,4.7-3.8,7.7-4.9c3-1.1,6.2-1.7,9.7-1.7c2,0,3.9,0.1,5.5,0.4s3.1,0.6,4.3,1
	c1.2,0.4,2.3,0.8,3.1,1.2c0.8,0.4,1.4,0.7,1.8,1l-3.1,8.7c-1.5-0.8-3.2-1.4-5.1-2c-2-0.6-4.2-0.8-6.7-0.8c-1.7,0-3.3,0.3-4.9,0.8
	c-1.6,0.6-3,1.4-4.2,2.7c-1.2,1.2-2.2,2.8-2.9,4.7c-0.7,1.9-1.1,4.3-1.1,7c0,2.2,0.2,4.3,0.7,6.2c0.5,1.9,1.3,3.6,2.3,4.9
	c1.1,1.4,2.5,2.5,4.2,3.3c1.7,0.8,3.9,1.2,6.3,1.2c1.6,0,3-0.1,4.2-0.3c1.2-0.2,2.3-0.4,3.3-0.7c1-0.3,1.8-0.5,2.6-0.9
	c0.7-0.3,1.4-0.6,2-0.9l3,8.6c-1.5,0.9-3.7,1.7-6.4,2.5C253.1,287.7,249.9,288.1,246.3,288.1L246.3,288.1z M305.3,271.4
	c0,2.7-0.5,5-1.6,7c-1,2-2.5,3.7-4.4,5.1c-1.9,1.4-4.2,2.4-7,3.1c-2.7,0.7-5.8,1-9.1,1c-1.9,0-4.1-0.1-6.6-0.4
	c-2.5-0.3-5-0.7-7.5-1.3v-46.7h10.8v15.9c0.5,0,1-0.1,1.4-0.1c0.4,0,0.9,0,1.4,0c7.5,0,13.1,1.3,16.9,4
	C303.5,261.8,305.3,265.9,305.3,271.4L305.3,271.4z M311.3,239.3h10.8v47.8h-10.8V239.3L311.3,239.3z M282.1,264.2c-0.2,0-0.6,0-1,0
	c-0.4,0-0.8,0-1.2,0.1v14.3c0.5,0,1.1,0.1,1.7,0.1c0.6,0,1.4,0,2.3,0c1.4,0,2.8-0.1,4-0.3c1.2-0.2,2.3-0.6,3.3-1.2
	c0.9-0.6,1.7-1.3,2.2-2.2c0.5-0.9,0.8-2.1,0.8-3.5c0-2.8-1-4.7-3.1-5.7C289.1,264.7,286,264.2,282.1,264.2L282.1,264.2z"/>
<g>
	<path class="st1" d="M192.6,317.2c-0.3-0.2-0.7-0.3-1.1-0.4c-0.4-0.1-0.9-0.1-1.4-0.1h-2.9v4.4c0.1,0,0.3,0,0.4,0.1
		c0.2,0,0.4,0,0.7,0s0.5,0,0.8,0c0.3,0,0.5,0,0.8,0c0.5,0,1,0,1.5-0.1c0.5-0.1,0.9-0.2,1.2-0.4c0.3-0.2,0.6-0.4,0.8-0.7
		c0.2-0.3,0.3-0.7,0.3-1.1c0-0.4-0.1-0.8-0.3-1.1C193.2,317.7,192.9,317.4,192.6,317.2z"/>
	<path class="st1" d="M240.5,311.1c-1.2,0-2.1,0.5-2.8,1.4c-0.7,0.9-1,2.1-1,3.7s0.3,2.8,1,3.7c0.7,0.9,1.6,1.4,2.8,1.4
		c1.2,0,2.1-0.5,2.8-1.4c0.7-0.9,1-2.1,1-3.7s-0.3-2.8-1-3.7C242.7,311.6,241.7,311.1,240.5,311.1z"/>
	<path class="st1" d="M191.1,314.9c0.4-0.1,0.7-0.2,1-0.3c0.3-0.2,0.5-0.4,0.7-0.6c0.2-0.3,0.3-0.6,0.3-1c0-0.4-0.1-0.8-0.3-1
		c-0.2-0.2-0.5-0.4-0.8-0.6c-0.3-0.1-0.7-0.2-1.2-0.3c-0.4,0-0.9-0.1-1.3-0.1c-0.4,0-0.8,0-1.2,0c-0.4,0-0.8,0-1,0.1v3.9h2.6
		C190.3,314.9,190.7,314.9,191.1,314.9z"/>
	<path class="st1" d="M227.8,317.2c-0.3-0.2-0.7-0.3-1.1-0.4c-0.4-0.1-0.9-0.1-1.4-0.1h-2.9v4.4c0.1,0,0.3,0,0.4,0.1
		c0.2,0,0.4,0,0.7,0s0.5,0,0.8,0c0.3,0,0.5,0,0.8,0c0.5,0,1,0,1.5-0.1c0.5-0.1,0.9-0.2,1.2-0.4c0.3-0.2,0.6-0.4,0.8-0.7
		c0.2-0.3,0.3-0.7,0.3-1.1c0-0.4-0.1-0.8-0.3-1.1C228.4,317.7,228.1,317.4,227.8,317.2z"/>
	<path class="st1" d="M206.9,316.9c-0.3-0.2-0.7-0.4-1-0.4c-0.4-0.1-0.8-0.1-1.2-0.1c-0.5,0-0.9,0-1.4,0c-0.4,0-0.8,0.1-1.2,0.2v4.7
		c0.1,0,0.3,0,0.5,0.1c0.2,0,0.4,0,0.7,0c0.2,0,0.5,0,0.7,0s0.5,0,0.7,0c1.1,0,1.9-0.2,2.5-0.6c0.6-0.4,0.9-1.1,0.9-2
		c0-0.4-0.1-0.8-0.3-1.1C207.5,317.3,207.2,317.1,206.9,316.9z"/>
	<path class="st1" d="M34.4,311.1c-1.2,0-2.1,0.5-2.8,1.4c-0.7,0.9-1,2.1-1,3.7s0.3,2.8,1,3.7c0.7,0.9,1.6,1.4,2.8,1.4
		c1.2,0,2.1-0.5,2.8-1.4c0.7-0.9,1-2.1,1-3.7s-0.3-2.8-1-3.7C36.6,311.6,35.6,311.1,34.4,311.1z"/>
	<path class="st1" d="M168.4,311.1c-1.2,0-2.1,0.5-2.8,1.4c-0.7,0.9-1,2.1-1,3.7s0.3,2.8,1,3.7c0.7,0.9,1.6,1.4,2.8,1.4
		c1.2,0,2.1-0.5,2.8-1.4c0.7-0.9,1-2.1,1-3.7s-0.3-2.8-1-3.7C170.5,311.6,169.6,311.1,168.4,311.1z"/>
	<path class="st1" d="M85,316.7c-0.4,0-0.8,0-1.2,0.1c-0.4,0.1-0.8,0.2-1.1,0.3c-0.3,0.2-0.6,0.4-0.9,0.7c-0.2,0.3-0.3,0.7-0.3,1.1
		c0,0.9,0.3,1.5,0.8,1.8c0.6,0.3,1.3,0.5,2.3,0.5c0.6,0,1.1,0,1.5,0c0.4,0,0.8-0.1,1.1-0.1V317c-0.2-0.1-0.5-0.2-0.9-0.2
		C86.1,316.7,85.6,316.7,85,316.7z"/>
	<path class="st1" d="M131.5,311c-1,0-1.8,0.2-2.4,0.6c-0.6,0.4-0.9,1.1-0.9,2c0,0.9,0.3,1.5,1,1.8c0.6,0.3,1.5,0.5,2.5,0.5h2.5
		v-4.8c-0.2,0-0.5-0.1-1-0.1C132.6,311,132,311,131.5,311z"/>
	<path class="st1" d="M226.3,314.9c0.4-0.1,0.7-0.2,1-0.3c0.3-0.2,0.5-0.4,0.7-0.6c0.2-0.3,0.3-0.6,0.3-1c0-0.4-0.1-0.8-0.3-1
		c-0.2-0.2-0.5-0.4-0.8-0.6c-0.3-0.1-0.7-0.2-1.2-0.3c-0.4,0-0.9-0.1-1.3-0.1c-0.4,0-0.8,0-1.2,0c-0.4,0-0.8,0-1,0.1v3.9h2.6
		C225.5,314.9,225.9,314.9,226.3,314.9z"/>
	<path class="st1" d="M3.9,302v28.9h374.9V302H3.9z M23.8,323.1c-0.4-0.6-0.8-1.2-1.4-1.8c-0.5-0.6-1.1-1.2-1.6-1.8
		c-0.6-0.6-1.1-1.1-1.7-1.6c-0.6-0.5-1.1-0.9-1.6-1.2v6.5H15v-13.7h2.5v5.9c0.4-0.4,0.9-0.9,1.5-1.4c0.5-0.5,1.1-1.1,1.6-1.6
		c0.6-0.6,1.1-1.1,1.5-1.6c0.5-0.5,0.9-0.9,1.2-1.3h2.9c-0.4,0.4-0.8,0.9-1.4,1.4c-0.5,0.5-1.1,1.1-1.6,1.6
		c-0.6,0.6-1.1,1.1-1.6,1.7c-0.5,0.6-1,1.1-1.5,1.5c0.5,0.4,1.1,0.9,1.8,1.5c0.6,0.6,1.3,1.2,1.9,1.9c0.6,0.7,1.2,1.4,1.7,2.1
		c0.5,0.7,1,1.4,1.3,2H23.8z M40.4,319.1c-0.3,0.9-0.8,1.6-1.3,2.3c-0.6,0.6-1.3,1.1-2,1.5c-0.8,0.3-1.7,0.5-2.6,0.5
		c-0.9,0-1.8-0.2-2.6-0.5c-0.8-0.3-1.5-0.8-2-1.5c-0.6-0.6-1-1.4-1.3-2.3c-0.3-0.9-0.5-1.9-0.5-3c0-1.1,0.2-2.1,0.5-2.9
		c0.3-0.9,0.8-1.6,1.3-2.3c0.6-0.6,1.3-1.1,2-1.5c0.8-0.3,1.7-0.5,2.6-0.5c0.9,0,1.8,0.2,2.6,0.5c0.8,0.3,1.5,0.8,2,1.5
		c0.6,0.6,1,1.4,1.3,2.3c0.3,0.9,0.5,1.9,0.5,2.9C40.9,317.3,40.7,318.3,40.4,319.1z M57.7,323.1c-0.1-1.5-0.1-3.2-0.2-4.9
		c-0.1-1.7-0.2-3.5-0.4-5.2c-0.3,0.5-0.6,1.2-1,2c-0.4,0.8-0.7,1.5-1.1,2.3c-0.4,0.8-0.7,1.5-1,2.3c-0.3,0.7-0.6,1.3-0.7,1.7h-2.1
		c-0.2-0.4-0.5-1-0.8-1.7c-0.3-0.7-0.7-1.5-1-2.3c-0.4-0.8-0.7-1.6-1.1-2.3c-0.4-0.8-0.7-1.4-1-1.9c-0.2,1.7-0.3,3.5-0.4,5.2
		c-0.1,1.7-0.2,3.4-0.2,4.9h-2.3c0-1.1,0.1-2.2,0.2-3.4c0.1-1.2,0.1-2.3,0.2-3.5c0.1-1.2,0.2-2.4,0.3-3.5c0.1-1.2,0.2-2.3,0.3-3.3
		h2.2c0.6,0.9,1.2,2.2,2,3.8c0.8,1.6,1.6,3.4,2.6,5.5c1-2.1,1.9-3.9,2.6-5.5c0.8-1.6,1.4-2.8,2-3.8h2.3c0.1,1.1,0.2,2.2,0.3,3.3
		c0.1,1.2,0.2,2.3,0.3,3.5c0.1,1.2,0.2,2.4,0.2,3.5c0.1,1.2,0.1,2.3,0.2,3.4H57.7z M75.4,323.1H73v-11.7h-6.1v11.7h-2.5v-13.7h11
		V323.1z M89.7,322.8c-0.2,0-0.5,0.1-0.9,0.1c-0.4,0.1-0.8,0.1-1.3,0.2c-0.5,0.1-1,0.1-1.5,0.1c-0.6,0-1.1,0.1-1.6,0.1
		c-0.8,0-1.5-0.1-2.1-0.2c-0.7-0.2-1.2-0.4-1.7-0.8c-0.5-0.3-0.8-0.8-1.1-1.4c-0.3-0.6-0.4-1.2-0.4-2c0-0.8,0.2-1.4,0.5-2
		c0.3-0.5,0.7-1,1.3-1.3c0.5-0.3,1.1-0.6,1.8-0.7c0.7-0.2,1.4-0.2,2.2-0.2c0.2,0,0.5,0,0.8,0s0.5,0.1,0.8,0.1c0.2,0,0.4,0.1,0.6,0.1
		c0.2,0,0.3,0.1,0.4,0.1v-0.7c0-0.4,0-0.8-0.1-1.2c-0.1-0.4-0.2-0.7-0.5-1.1c-0.2-0.3-0.5-0.6-0.9-0.7c-0.4-0.2-0.9-0.3-1.5-0.3
		c-0.8,0-1.5,0.1-2.1,0.2c-0.6,0.1-1.1,0.2-1.4,0.4l-0.3-2c0.3-0.1,0.8-0.3,1.6-0.4c0.7-0.1,1.5-0.2,2.4-0.2c1,0,1.8,0.1,2.5,0.4
		c0.7,0.3,1.2,0.6,1.6,1.1c0.4,0.5,0.7,1,0.9,1.7c0.2,0.6,0.3,1.4,0.3,2.1V322.8z M105.4,323.1H103V317h-6.3v6.1h-2.5v-13.7h2.5v5.6
		h6.3v-5.6h2.5V323.1z M121.6,323.1h-2.4v-10.5c-0.5,0.7-1.1,1.5-1.7,2.3c-0.6,0.9-1.3,1.8-1.9,2.8c-0.6,1-1.2,1.9-1.8,2.8
		c-0.6,0.9-1.1,1.8-1.5,2.5H110v-13.7h2.4v9.9c0.5-0.8,1-1.6,1.6-2.5c0.6-0.9,1.2-1.8,1.8-2.7c0.6-0.9,1.2-1.7,1.9-2.6
		c0.6-0.8,1.2-1.5,1.8-2.1h2.2V323.1z M136.4,323.1H134v-5.3h-2.1c-0.3,0-0.5,0-0.8,0s-0.5,0-0.7,0c-0.6,0.8-1.1,1.7-1.6,2.7
		c-0.5,1-1,1.9-1.4,2.7h-2.5c0.2-0.5,0.5-1,0.7-1.6c0.3-0.5,0.6-1.1,0.9-1.6c0.3-0.5,0.6-1,0.9-1.5c0.3-0.5,0.6-0.9,0.8-1.2
		c-0.5-0.2-0.9-0.4-1.2-0.6c-0.3-0.3-0.6-0.5-0.8-0.9c-0.2-0.3-0.3-0.7-0.4-1c-0.1-0.4-0.1-0.7-0.1-1.1c0-0.8,0.1-1.5,0.4-2
		c0.3-0.6,0.7-1.1,1.2-1.4c0.5-0.4,1.1-0.7,1.8-0.9c0.7-0.2,1.5-0.3,2.3-0.3c1.2,0,2.1,0.1,3,0.2c0.8,0.1,1.5,0.2,2,0.4V323.1z
		 M158.1,323.1h-2.5v-11.7h-6.1v11.7h-2.5v-13.7h11V323.1z M174.4,319.1c-0.3,0.9-0.8,1.6-1.3,2.3c-0.6,0.6-1.3,1.1-2,1.5
		c-0.8,0.3-1.7,0.5-2.6,0.5c-0.9,0-1.8-0.2-2.6-0.5c-0.8-0.3-1.5-0.8-2-1.5c-0.6-0.6-1-1.4-1.3-2.3c-0.3-0.9-0.5-1.9-0.5-3
		c0-1.1,0.2-2.1,0.5-2.9c0.3-0.9,0.8-1.6,1.3-2.3c0.6-0.6,1.3-1.1,2-1.5c0.8-0.3,1.7-0.5,2.6-0.5c0.9,0,1.8,0.2,2.6,0.5
		c0.8,0.3,1.5,0.8,2,1.5c0.6,0.6,1,1.4,1.3,2.3c0.3,0.9,0.5,1.9,0.5,2.9C174.8,317.3,174.7,318.3,174.4,319.1z M195.6,321.1
		c-0.3,0.5-0.8,1-1.3,1.3c-0.6,0.3-1.2,0.6-2,0.7c-0.8,0.1-1.6,0.2-2.5,0.2c-1,0-2,0-2.9-0.1c-0.9-0.1-1.6-0.2-2.1-0.3v-13.4
		c0.5-0.1,1.2-0.2,2.1-0.3c0.9-0.1,1.8-0.1,2.9-0.1c0.7,0,1.4,0.1,2.1,0.2c0.7,0.1,1.3,0.3,1.8,0.6c0.5,0.3,1,0.7,1.3,1.2
		c0.3,0.5,0.5,1.1,0.5,1.9c0,0.7-0.2,1.2-0.5,1.7c-0.3,0.5-0.8,0.8-1.3,1.1c0.8,0.3,1.4,0.7,1.8,1.2c0.4,0.5,0.7,1.2,0.7,2.2
		C196.1,319.8,195.9,320.5,195.6,321.1z M210,320.9c-0.3,0.6-0.7,1.1-1.2,1.4c-0.5,0.4-1.1,0.6-1.8,0.8c-0.7,0.2-1.5,0.3-2.4,0.3
		c-0.8,0-1.7,0-2.5-0.1c-0.8-0.1-1.7-0.2-2.5-0.4v-13.4h2.5v5.3c0.3-0.1,0.7-0.1,1.3-0.2c0.6-0.1,1.1-0.1,1.6-0.1
		c0.7,0,1.4,0.1,2.1,0.3c0.7,0.2,1.2,0.4,1.7,0.8c0.5,0.4,0.9,0.8,1.2,1.4c0.3,0.6,0.4,1.3,0.4,2C210.4,319.6,210.3,320.3,210,320.9
		z M215.4,323.1h-2.5v-13.7h2.5V323.1z M230.8,321.1c-0.3,0.5-0.8,1-1.3,1.3c-0.6,0.3-1.2,0.6-2,0.7c-0.8,0.1-1.6,0.2-2.5,0.2
		c-1,0-2,0-2.9-0.1c-0.9-0.1-1.6-0.2-2.1-0.3v-13.4c0.5-0.1,1.2-0.2,2.1-0.3c0.9-0.1,1.8-0.1,2.9-0.1c0.7,0,1.4,0.1,2.1,0.2
		c0.7,0.1,1.3,0.3,1.8,0.6c0.5,0.3,1,0.7,1.3,1.2c0.3,0.5,0.5,1.1,0.5,1.9c0,0.7-0.2,1.2-0.5,1.7c-0.3,0.5-0.8,0.8-1.3,1.1
		c0.8,0.3,1.4,0.7,1.8,1.2c0.4,0.5,0.7,1.2,0.7,2.2C231.3,319.8,231.1,320.5,230.8,321.1z M246.5,319.1c-0.3,0.9-0.8,1.6-1.3,2.3
		c-0.6,0.6-1.3,1.1-2,1.5c-0.8,0.3-1.7,0.5-2.6,0.5c-0.9,0-1.8-0.2-2.6-0.5c-0.8-0.3-1.5-0.8-2-1.5c-0.6-0.6-1-1.4-1.3-2.3
		c-0.3-0.9-0.5-1.9-0.5-3c0-1.1,0.2-2.1,0.5-2.9c0.3-0.9,0.8-1.6,1.3-2.3c0.6-0.6,1.3-1.1,2-1.5c0.8-0.3,1.7-0.5,2.6-0.5
		c0.9,0,1.8,0.2,2.6,0.5c0.8,0.3,1.5,0.8,2,1.5c0.6,0.6,1,1.4,1.3,2.3c0.3,0.9,0.5,1.9,0.5,2.9C246.9,317.3,246.8,318.3,246.5,319.1
		z M258.3,322.4c-1.1,0.6-2.5,0.9-4.3,0.9c-1.1,0-2.1-0.1-2.9-0.3c-0.8-0.2-1.4-0.3-1.7-0.5l0.4-2.1c0.3,0.1,0.8,0.3,1.5,0.4
		c0.7,0.2,1.6,0.3,2.6,0.3c1.1,0,2-0.2,2.5-0.5c0.6-0.3,0.9-0.9,0.9-1.5c0-0.5-0.1-0.9-0.3-1.2c-0.2-0.3-0.5-0.5-0.8-0.7
		c-0.3-0.2-0.7-0.3-1.1-0.3c-0.4-0.1-0.7-0.1-1.1-0.1h-2.3v-2h2.2c0.3,0,0.6,0,1-0.1c0.3,0,0.7-0.1,0.9-0.3c0.3-0.1,0.5-0.3,0.7-0.6
		s0.3-0.6,0.3-1c0-0.3-0.1-0.6-0.3-0.9c-0.2-0.2-0.4-0.4-0.7-0.6c-0.3-0.2-0.6-0.3-1-0.4c-0.4-0.1-0.8-0.1-1.2-0.1
		c-0.3,0-0.7,0-1,0.1c-0.4,0.1-0.7,0.1-1.1,0.2c-0.4,0.1-0.7,0.2-1,0.3c-0.3,0.1-0.5,0.2-0.6,0.2l-0.4-2.1c0.1-0.1,0.4-0.1,0.7-0.2
		c0.3-0.1,0.6-0.2,1-0.2c0.4-0.1,0.8-0.1,1.2-0.2c0.4-0.1,0.8-0.1,1.2-0.1c0.8,0,1.5,0.1,2.2,0.2c0.7,0.2,1.3,0.4,1.8,0.7
		s0.9,0.7,1.2,1.2c0.3,0.5,0.4,1,0.4,1.7c0,0.4-0.1,0.8-0.2,1.1c-0.1,0.3-0.3,0.6-0.5,0.9c-0.2,0.3-0.4,0.5-0.7,0.7
		s-0.5,0.3-0.7,0.4c0.8,0.2,1.4,0.7,1.9,1.3c0.5,0.6,0.7,1.4,0.7,2.4C259.8,320.8,259.3,321.8,258.3,322.4z M272,316.8
		c-0.8,2.4-1.6,4.6-2.5,6.7c-0.4,0.8-0.7,1.5-1.1,2c-0.4,0.6-0.8,1-1.3,1.4c-0.5,0.4-1,0.6-1.5,0.8c-0.6,0.2-1.2,0.3-1.9,0.3
		c-0.2,0-0.4,0-0.6,0s-0.4-0.1-0.6-0.1c-0.2,0-0.4-0.1-0.6-0.1c-0.2-0.1-0.3-0.1-0.4-0.1l0.4-2c0.2,0.1,0.4,0.2,0.8,0.3
		c0.3,0.1,0.6,0.1,0.9,0.1c1,0,1.7-0.2,2.3-0.6c0.5-0.4,1-1.1,1.5-2.1c-1.1-2.1-2.1-4.4-3.1-6.7c-1-2.4-1.8-4.8-2.4-7.2h2.6
		c0.2,0.8,0.4,1.6,0.7,2.6c0.3,0.9,0.6,1.9,0.9,2.8c0.3,1,0.7,1.9,1.1,2.9c0.4,1,0.8,1.9,1.2,2.8c0.7-1.8,1.2-3.7,1.7-5.5
		c0.5-1.8,1-3.7,1.4-5.6h2.5C273.5,311.9,272.8,314.4,272,316.8z M296.2,323.1c-0.1-1.5-0.1-3.2-0.2-4.9c-0.1-1.7-0.2-3.5-0.4-5.2
		c-0.3,0.5-0.6,1.2-1,2c-0.4,0.8-0.7,1.5-1.1,2.3c-0.4,0.8-0.7,1.5-1,2.3c-0.3,0.7-0.6,1.3-0.7,1.7h-2.1c-0.2-0.4-0.5-1-0.8-1.7
		c-0.3-0.7-0.7-1.5-1-2.3c-0.4-0.8-0.7-1.6-1.1-2.3c-0.4-0.8-0.7-1.4-1-1.9c-0.2,1.7-0.3,3.5-0.4,5.2c-0.1,1.7-0.2,3.4-0.2,4.9h-2.3
		c0-1.1,0.1-2.2,0.2-3.4c0.1-1.2,0.1-2.3,0.2-3.5c0.1-1.2,0.2-2.4,0.3-3.5c0.1-1.2,0.2-2.3,0.3-3.3h2.2c0.6,0.9,1.2,2.2,2,3.8
		c0.8,1.6,1.6,3.4,2.6,5.5c1-2.1,1.9-3.9,2.6-5.5c0.8-1.6,1.4-2.8,2-3.8h2.3c0.1,1.1,0.2,2.2,0.3,3.3c0.1,1.2,0.2,2.3,0.3,3.5
		c0.1,1.2,0.2,2.4,0.2,3.5c0.1,1.2,0.1,2.3,0.2,3.4H296.2z M311.3,316.8c-0.8,2.4-1.6,4.6-2.5,6.7c-0.4,0.8-0.7,1.5-1.1,2
		c-0.4,0.6-0.8,1-1.3,1.4c-0.5,0.4-1,0.6-1.5,0.8c-0.6,0.2-1.2,0.3-1.9,0.3c-0.2,0-0.4,0-0.6,0s-0.4-0.1-0.6-0.1
		c-0.2,0-0.4-0.1-0.6-0.1s-0.3-0.1-0.4-0.1l0.4-2c0.2,0.1,0.4,0.2,0.8,0.3c0.3,0.1,0.6,0.1,0.9,0.1c1,0,1.7-0.2,2.3-0.6
		c0.5-0.4,1-1.1,1.5-2.1c-1.1-2.1-2.1-4.4-3.1-6.7c-1-2.4-1.8-4.8-2.4-7.2h2.6c0.2,0.8,0.4,1.6,0.7,2.6c0.3,0.9,0.6,1.9,0.9,2.8
		c0.3,1,0.7,1.9,1.1,2.9c0.4,1,0.8,1.9,1.2,2.8c0.7-1.8,1.2-3.7,1.7-5.5c0.5-1.8,1-3.7,1.4-5.6h2.5
		C312.8,311.9,312.1,314.4,311.3,316.8z M325.1,322.9c-0.3,0.1-0.6,0.1-0.9,0.2c-0.3,0.1-0.7,0.1-1.1,0.2c-0.4,0-0.7,0.1-1.1,0.1
		c-1.1,0-2.1-0.2-2.9-0.5c-0.8-0.4-1.5-0.8-2.1-1.5c-0.6-0.6-1-1.4-1.3-2.3c-0.3-0.9-0.4-1.8-0.4-2.9c0-1.1,0.2-2,0.5-2.9
		c0.3-0.9,0.7-1.6,1.3-2.3c0.6-0.6,1.3-1.1,2.1-1.5c0.8-0.4,1.7-0.5,2.7-0.5c0.6,0,1.2,0.1,1.8,0.2c0.6,0.1,1.2,0.3,1.8,0.5
		l-0.6,2.1c-0.4-0.2-0.8-0.3-1.3-0.4c-0.5-0.1-1-0.2-1.5-0.2c-1.4,0-2.4,0.4-3.2,1.3c-0.7,0.9-1.1,2.1-1.1,3.8c0,0.7,0.1,1.4,0.3,2
		c0.2,0.6,0.4,1.1,0.8,1.6c0.4,0.4,0.8,0.8,1.4,1c0.6,0.2,1.2,0.4,2.1,0.4c0.7,0,1.2-0.1,1.8-0.2c0.5-0.1,0.9-0.3,1.2-0.4l0.3,2.1
		C325.5,322.8,325.3,322.9,325.1,322.9z M340,319.1c-0.3,0.9-0.8,1.6-1.3,2.3c-0.6,0.6-1.3,1.1-2,1.5c-0.8,0.3-1.7,0.5-2.6,0.5
		c-0.9,0-1.8-0.2-2.6-0.5c-0.8-0.3-1.5-0.8-2-1.5c-0.6-0.6-1-1.4-1.3-2.3c-0.3-0.9-0.5-1.9-0.5-3c0-1.1,0.2-2.1,0.5-2.9
		c0.3-0.9,0.8-1.6,1.3-2.3c0.6-0.6,1.3-1.1,2-1.5c0.8-0.3,1.7-0.5,2.6-0.5c0.9,0,1.8,0.2,2.6,0.5c0.8,0.3,1.5,0.8,2,1.5
		c0.6,0.6,1,1.4,1.3,2.3c0.3,0.9,0.5,1.9,0.5,2.9C340.5,317.3,340.3,318.3,340,319.1z M356,319.1c-0.3,0.9-0.7,1.6-1.2,2.3
		c-0.5,0.6-1.2,1.1-1.9,1.5c-0.8,0.4-1.6,0.5-2.6,0.5c-0.8,0-1.5-0.1-2.1-0.3c-0.6-0.2-1.1-0.4-1.4-0.6v5.5h-2.5v-18.2
		c0.6-0.1,1.3-0.3,2.2-0.5c0.9-0.2,1.9-0.3,3-0.3c1.1,0,2,0.2,2.9,0.5c0.8,0.3,1.6,0.8,2.2,1.4c0.6,0.6,1.1,1.4,1.4,2.3
		c0.3,0.9,0.5,1.9,0.5,3C356.4,317.3,356.3,318.2,356,319.1z M369.9,322.8c-0.2,0-0.5,0.1-0.9,0.1c-0.4,0.1-0.8,0.1-1.3,0.2
		c-0.5,0.1-1,0.1-1.5,0.1c-0.6,0-1.1,0.1-1.6,0.1c-0.8,0-1.5-0.1-2.1-0.2c-0.7-0.2-1.2-0.4-1.7-0.8c-0.5-0.3-0.8-0.8-1.1-1.4
		c-0.3-0.6-0.4-1.2-0.4-2c0-0.8,0.2-1.4,0.5-2c0.3-0.5,0.7-1,1.3-1.3c0.5-0.3,1.1-0.6,1.8-0.7c0.7-0.2,1.4-0.2,2.2-0.2
		c0.2,0,0.5,0,0.8,0s0.5,0.1,0.8,0.1c0.2,0,0.4,0.1,0.6,0.1c0.2,0,0.3,0.1,0.4,0.1v-0.7c0-0.4,0-0.8-0.1-1.2
		c-0.1-0.4-0.2-0.7-0.5-1.1c-0.2-0.3-0.5-0.6-0.9-0.7c-0.4-0.2-0.9-0.3-1.5-0.3c-0.8,0-1.5,0.1-2.1,0.2c-0.6,0.1-1.1,0.2-1.4,0.4
		l-0.3-2c0.3-0.1,0.8-0.3,1.6-0.4c0.7-0.1,1.5-0.2,2.4-0.2c1,0,1.8,0.1,2.5,0.4c0.7,0.3,1.2,0.6,1.6,1.1c0.4,0.5,0.7,1,0.9,1.7
		c0.2,0.6,0.3,1.4,0.3,2.1V322.8z"/>
	<path class="st1" d="M365.3,316.7c-0.4,0-0.8,0-1.2,0.1c-0.4,0.1-0.8,0.2-1.1,0.3c-0.3,0.2-0.6,0.4-0.9,0.7
		c-0.2,0.3-0.3,0.7-0.3,1.1c0,0.9,0.3,1.5,0.8,1.8c0.6,0.3,1.3,0.5,2.3,0.5c0.6,0,1.1,0,1.5,0c0.4,0,0.8-0.1,1.1-0.1V317
		c-0.2-0.1-0.5-0.2-0.9-0.2C366.3,316.7,365.8,316.7,365.3,316.7z"/>
	<path class="st1" d="M349.5,311.2c-0.7,0-1.3,0-1.7,0.1c-0.4,0.1-0.7,0.1-1,0.2v8.7c0.3,0.2,0.7,0.5,1.3,0.7
		c0.6,0.2,1.2,0.3,1.8,0.3c0.7,0,1.3-0.1,1.8-0.4c0.5-0.3,0.9-0.6,1.2-1.1c0.3-0.4,0.5-1,0.7-1.6c0.1-0.6,0.2-1.3,0.2-2
		c0-1.6-0.4-2.8-1.2-3.7C351.9,311.7,350.8,311.2,349.5,311.2z"/>
	<path class="st1" d="M334,311.1c-1.2,0-2.1,0.5-2.8,1.4c-0.7,0.9-1,2.1-1,3.7s0.3,2.8,1,3.7c0.7,0.9,1.6,1.4,2.8,1.4
		c1.2,0,2.1-0.5,2.8-1.4c0.7-0.9,1-2.1,1-3.7s-0.3-2.8-1-3.7C336.2,311.6,335.2,311.1,334,311.1z"/>
</g>
<path class="st1" d="M355,49.3c12.6,11.1,20.6,27.4,20.6,45.6s-8,34.4-20.6,45.6c-12.6-11.1-20.6-27.4-20.6-45.6
	S342.3,60.5,355,49.3L355,49.3z"/>
<path class="st1" d="M461.8,101.1c-0.9,16.8-8.7,33.2-23,44.4c-14.2,11.3-32,15.1-48.5,12.1c0.9-16.8,8.7-33.2,23-44.4
	C427.6,102,445.3,98.1,461.8,101.1L461.8,101.1z"/>
<path class="st1" d="M246.6,101.1c0.9,16.8,8.7,33.2,23,44.4c14.2,11.3,32,15.1,48.5,12.1c-0.9-16.8-8.7-33.2-23-44.4
	C280.8,102,263.1,98.1,246.6,101.1L246.6,101.1z"/>
<path class="st1" d="M302,77.3c9.3,2.6,17.6,9,22.2,18.4c4.6,9.4,4.6,19.8,0.9,28.8c-9.3-2.6-17.6-9-22.2-18.4
	C298.3,96.7,298.3,86.2,302,77.3L302,77.3z"/>
<path class="st1" d="M237,160.8c7.8-5.8,17.9-8.4,28.1-6.2c10.2,2.1,18.5,8.6,23.2,17c-7.8,5.8-17.9,8.4-28.1,6.2
	C250,175.7,241.8,169.3,237,160.8L237,160.8z"/>
<path class="st1" d="M406.1,76.4c3.9,8.9,4,19.3-0.4,28.8c-4.4,9.5-12.6,16-21.9,18.7c-3.9-8.9-4-19.3,0.4-28.8
	C388.7,85.7,396.8,79.2,406.1,76.4L406.1,76.4z"/>
<path class="st1" d="M472.8,160c-4.7,8.5-12.9,14.9-23.1,17.1c-10.2,2.2-20.3-0.3-28.1-6c4.7-8.5,12.9-14.9,23.1-17.1
	C454.8,151.8,465,154.3,472.8,160L472.8,160z"/>
<path class="st1" d="M333.4,22.1c5.3,3.6,9.2,9.4,10.1,16.3c0.9,6.9-1.3,13.5-5.5,18.3c-5.3-3.6-9.2-9.4-10.1-16.3
	C327,33.6,329.2,27,333.4,22.1L333.4,22.1z"/>
<path class="st1" d="M318.8,50.8c5.8,2.9,10.3,8.1,12.1,14.8c1.8,6.7,0.5,13.5-3.1,18.9c-5.8-2.9-10.3-8.1-12.1-14.8
	C314,63,315.3,56.2,318.8,50.8L318.8,50.8z"/>
<path class="st1" d="M272.2,73.2c6.4,0.6,12.6,3.8,16.7,9.4c4.1,5.6,5.4,12.4,4,18.7c-6.4-0.6-12.6-3.8-16.7-9.4
	C272.1,86.3,270.9,79.5,272.2,73.2L272.2,73.2z"/>
<path class="st1" d="M225.5,133.5c5.8-2.9,12.7-3.4,19.1-0.8c6.4,2.6,11.1,7.7,13.2,13.8c-5.8,2.9-12.7,3.4-19.1,0.8
	C232.3,144.7,227.7,139.5,225.5,133.5L225.5,133.5z"/>
<path class="st1" d="M390.5,50.7c3.6,5.3,4.9,12.2,3.2,18.9c-1.8,6.7-6.3,12-12.1,14.9c-3.6-5.3-4.9-12.2-3.2-18.9
	C380.2,58.8,384.7,53.5,390.5,50.7L390.5,50.7z"/>
<path class="st1" d="M436.4,72.3c1.4,6.3,0.3,13.1-3.8,18.8c-4.1,5.6-10.2,8.9-16.6,9.6c-1.4-6.3-0.3-13.1,3.8-18.8
	C423.8,76.2,430,72.9,436.4,72.3L436.4,72.3z"/>
<path class="st1" d="M483.6,131.5c-2.1,6.1-6.6,11.3-13,14c-6.4,2.7-13.3,2.3-19.1-0.5c2.1-6.1,6.6-11.3,13-14
	C470.8,128.3,477.8,128.7,483.6,131.5L483.6,131.5z"/>
<path class="st1" d="M281.1,38.2c6.2,1.6,11.7,5.9,14.9,12.1c3.1,6.2,3.2,13.1,0.8,19.1c-6.2-1.6-11.7-5.9-14.9-12.1
	C278.8,51.1,278.7,44.2,281.1,38.2L281.1,38.2z"/>
<path class="st1" d="M241.8,65.7c6.4-0.2,12.9,2.2,17.7,7.3c4.8,5,6.8,11.7,6.2,18.1c-6.4,0.2-12.9-2.2-17.7-7.3
	C243.2,78.8,241.2,72.2,241.8,65.7L241.8,65.7z"/>
<path class="st1" d="M212.2,103.2c6.1-2.1,13-1.6,19,1.9c6,3.5,9.9,9.2,11.2,15.5c-6.1,2.1-13,1.6-19-1.9
	C217.3,115.3,213.4,109.5,212.2,103.2L212.2,103.2z"/>
<path class="st1" d="M376.3,22.1c4.2,4.8,6.5,11.4,5.6,18.3c-0.9,6.9-4.7,12.7-10.1,16.3c-4.2-4.8-6.5-11.4-5.6-18.3
	C367.1,31.5,370.9,25.7,376.3,22.1L376.3,22.1z"/>
<path class="st1" d="M424.8,36.3c2.6,5.9,2.7,12.8-0.3,19.1c-2.9,6.3-8.3,10.6-14.5,12.5c-2.6-5.9-2.7-12.8,0.3-19.1
	C413.2,42.4,418.6,38.1,424.8,36.3L424.8,36.3z"/>
<path class="st1" d="M467.8,65.4c0.6,6.4-1.4,13-6.2,18.1c-4.8,5.1-11.2,7.5-17.7,7.3c-0.6-6.4,1.4-13,6.2-18.1
	C454.9,67.7,461.4,65.2,467.8,65.4L467.8,65.4z"/>
<path class="st1" d="M497,102c-1.2,6.3-5,12.1-11,15.6c-6,3.5-12.9,4.1-19,2.1c1.2-6.3,5-12.1,11-15.6C484,100.5,490.9,100,497,102
	L497,102z"/>
<path class="st1" d="M355,0c4.9,4.3,8,10.7,8,17.7s-3.1,13.4-8,17.7c-4.9-4.3-8-10.7-8-17.7S350.1,4.3,355,0L355,0z"/>
<path class="st1" d="M324.9,137c6.4-0.2,12.8,2.2,17.6,7.2c4.7,5,6.8,11.6,6.3,17.9c-6.4,0.2-12.8-2.2-17.6-7.2
	C326.4,149.9,324.3,143.3,324.9,137L324.9,137z"/>
<path class="st1" d="M296.3,172.9c3.6-2.6,8.2-3.7,12.9-2.7c4.7,1,8.4,4,10.5,7.9c-3.6,2.6-8.2,3.7-12.9,2.7
	C302.2,179.8,298.5,176.8,296.3,172.9L296.3,172.9z"/>
<path class="st1" d="M412.5,170.5c-3.6-2.6-8.2-3.7-12.9-2.7c-4.7,1-8.4,4-10.5,7.9c3.6,2.6,8.2,3.7,12.9,2.7
	C406.7,177.4,410.4,174.4,412.5,170.5L412.5,170.5z"/>
<path class="st1" d="M292,184.1c-4.9-3.4-7.7-2.3-5.4,2.1c8.8,10.1,11.4,21.5,26.3,30.2c5.9,3.9,15.9,3.8,23.4,6.8
	c12.5,5,14.2,15.9,14.5,26.7c-1.4,19.1-4.5,26.3-7,36.8c10.9,0,21.8,0,32.7,0c-2.7-14.8-5.4-29.6-8.1-44.4
	c-1.9-15.8-4.6-32.1-20.5-42.4c-8-5.2-17.9-7.8-25.6-12.6c-5.1-4.5-8.3-0.9-4.8,4.5c3.2,4.8,13.4,10,17.6,16.1
	c-11.5,2.7-21.6-2.1-30.8-12.2C300.3,191.8,296.1,188,292,184.1L292,184.1z"/>
<path class="st1" d="M429.5,184.1c4.9-3.4,7.7-2.3,5.4,2.1c-8.8,10.1-11.4,21.5-26.3,30.2c-5.9,3.9-15.9,3.8-23.4,6.8
	c-7.9,3.1-11.4,8.6-13.1,14.9c-1.3-9.9-3.4-19.7-9.3-28c2.7-3.8,6.2-7.2,10.7-10.2c8-5.2,17.9-7.8,25.6-12.6
	c5.1-4.5,8.3-0.9,4.8,4.5c-3.2,4.8-13.4,10-17.6,16.1c11.5,2.7,21.6-2.1,30.8-12.2C421.3,191.8,425.4,188,429.5,184.1L429.5,184.1z"
	/>
<path class="st1" d="M374.8,171.2c-6.4,0.7-12.5,4-16.5,9.6c-4,5.7-5.2,12.5-3.7,18.8c6.4-0.7,12.5-4,16.5-9.6
	C375.1,184.3,376.3,177.5,374.8,171.2L374.8,171.2z"/>
<path class="st1" d="M390.2,141.1c-6.1-2.1-13-1.6-19,1.9c-6,3.5-9.9,9.2-11.2,15.5c6.1,2.1,13,1.6,19-1.9
	C385.1,153.2,389,147.5,390.2,141.1L390.2,141.1z"/>
<path class="st1" d="M351,186.2c0.2-4.4-1.5-8.9-4.9-12.2c-3.5-3.3-8-4.7-12.4-4.4c-0.2,4.4,1.5,8.9,4.9,12.2
	C342.1,185.1,346.6,186.5,351,186.2L351,186.2z"/>
<path class="st1" d="M460.6,37.7c0.6,6.4-1.4,13-6.2,18.1c-4.8,5.1-11.2,7.5-17.7,7.3c-0.6-6.4,1.4-13,6.2-18.1
	C447.6,40,454.1,37.5,460.6,37.7L460.6,37.7z"/>
<path class="st1" d="M253.6,31.7c6.2,1.6,11.7,5.9,14.9,12.1c3.1,6.2,3.2,13.1,0.8,19.1c-6.2-1.6-11.7-5.9-14.9-12.1
	C251.3,44.6,251.2,37.7,253.6,31.7L253.6,31.7z"/>
<path class="st1" d="M248.6,201.1c3.8-5.2,9.7-8.9,16.6-9.6c6.9-0.7,13.4,1.7,18.1,6.1c-3.8,5.2-9.7,8.9-16.6,9.6
	C259.8,207.9,253.3,205.5,248.6,201.1L248.6,201.1z"/>
<path class="st1" d="M246.9,185c-3.3-3-7.8-4.5-12.5-4c-4.7,0.6-8.8,3.1-11.3,6.8c3.3,3,7.8,4.5,12.5,4
	C240.4,191.2,244.4,188.6,246.9,185L246.9,185z"/>
</svg>
